
        <svg xmlns="http://www.w3.org/2000/svg" xmlns:xlink="http://www.w3.org/1999/xlink" version="1.1" width="3162.3083859332733" height="911.6278724568757" viewBox="0 0 3162.3083859332733 911.6278724568757">
			
			<g transform="scale(8.115419296663662) translate(10, 10)">
				<defs id="SvgjsDefs1073"/><g id="SvgjsG1074" featureKey="HKaMnE-0" transform="matrix(1.157542330766308,0,0,1.157542330766308,-10.208356842379388,-7.208887827125462)" fill="#000"><g xmlns="http://www.w3.org/2000/svg"><path d="M30.595,14.008c-0.027,0-0.084,0-0.113,0.028c-0.339,0.057-0.622,0.425-0.622,0.793v5.978   c0,0.057,0,0.085,0,0.113h-4.161c-2.604,0-4.728,2.125-4.728,4.731v4.165c-0.028,0-0.057,0-0.085,0h-6.001   c-0.028,0-0.057,0-0.085,0c-0.396,0.028-0.764,0.425-0.764,0.85c0.028,0.396,0.424,0.765,0.849,0.737h6.001   c0.028,0.028,0.057,0.028,0.085,0v3.966c-0.028,0-0.057,0-0.085,0h-6.001c-0.028,0-0.057,0-0.085,0   c-0.396,0-0.764,0.425-0.764,0.821c0.028,0.425,0.424,0.793,0.849,0.765h6.001c0.028,0,0.057,0,0.085,0v3.966   c-0.028-0.028-0.057-0.028-0.085,0h-6.001c-0.057-0.028-0.113-0.028-0.142,0c-0.424,0.028-0.764,0.453-0.736,0.85   c0.057,0.425,0.453,0.765,0.877,0.736h6.001c0.028,0,0.057,0,0.085,0v3.91c-0.028,0-0.057,0-0.085,0h-6.001   c-0.028,0-0.057,0-0.085,0c-0.396,0.028-0.764,0.425-0.764,0.85c0.028,0.425,0.424,0.793,0.849,0.765h6.001   c0.028,0,0.057,0,0.085,0v3.938c-0.028,0-0.057,0-0.085,0h-6.001c-0.057,0-0.113,0-0.142,0c-0.424,0.057-0.764,0.453-0.736,0.878   c0.057,0.425,0.453,0.765,0.877,0.736h6.001c0.028,0,0.057,0,0.085,0v3.938c-0.028,0-0.057,0-0.085,0h-6.001   c-0.057,0-0.113,0-0.142,0c-0.424,0.028-0.764,0.453-0.736,0.878c0.057,0.426,0.453,0.766,0.877,0.737h6.001   c0.028,0,0.057,0,0.085,0v3.909c-0.028,0-0.057,0-0.085,0h-6.001c-0.028,0-0.057,0-0.085,0c-0.396,0.028-0.764,0.425-0.764,0.85   c0.028,0.397,0.424,0.766,0.849,0.737h6.001c0.028,0,0.057,0,0.085,0v3.966c-0.028,0-0.057,0-0.085,0h-6.001   c-0.057,0-0.113,0-0.142,0c-0.424,0.028-0.764,0.453-0.736,0.879c0.057,0.396,0.453,0.765,0.877,0.708h6.001   c0.028,0,0.057,0,0.085,0v4.165c0,2.635,2.123,4.73,4.728,4.73h4.161c0,0.028,0,0.085,0,0.113v5.979   c0,0.425,0.368,0.821,0.792,0.821c0.426,0,0.821-0.396,0.821-0.821v-5.979c0-0.028,0-0.085,0-0.113h3.935c0,0.028,0,0.085,0,0.113   v5.979c0,0.425,0.369,0.821,0.793,0.821c0.425,0,0.821-0.396,0.793-0.821v-5.979c0-0.028,0-0.085,0-0.113h3.963   c0,0.028,0,0.085,0,0.113v5.979c0,0.425,0.368,0.821,0.793,0.821c0.424,0,0.793-0.396,0.793-0.821v-5.979c0-0.028,0-0.085,0-0.113   h3.934c0,0.028,0,0.085,0,0.113v5.979c-0.027,0.425,0.369,0.821,0.793,0.821c0.425,0,0.793-0.396,0.793-0.821v-5.979   c0-0.028,0-0.085,0-0.113h3.934c0,0.028,0,0.085,0,0.113v5.979c0,0.425,0.396,0.821,0.821,0.821s0.792-0.396,0.792-0.821v-5.979   c0-0.028,0-0.085,0-0.113h3.936c0,0.028,0,0.085,0,0.113v5.979c0,0.425,0.396,0.821,0.792,0.821c0.425,0,0.821-0.396,0.821-0.821   v-5.979c0-0.028,0-0.085,0-0.113h3.906c0,0.028,0,0.085,0,0.113v5.979c0,0.425,0.368,0.821,0.793,0.821s0.821-0.396,0.821-0.821   v-5.979c0-0.028,0-0.085,0-0.113h3.935c0,0.028,0,0.085,0,0.113v5.979c0,0.425,0.368,0.821,0.792,0.821   c0.425,0,0.821-0.396,0.793-0.821v-5.979c0-0.028,0-0.085,0-0.113h4.189c2.604,0,4.699-2.096,4.699-4.73v-4.165   c0.057,0,0.085,0,0.113,0h6.001c0.396,0,0.793-0.368,0.793-0.793c0-0.426-0.396-0.794-0.793-0.794H79.2c-0.028,0-0.057,0-0.113,0   v-3.966c0.057,0,0.085,0,0.113,0h6.001c0.396,0.028,0.793-0.368,0.793-0.794c0-0.425-0.396-0.793-0.793-0.793H79.2   c-0.028,0-0.057,0-0.085,0c0,0,0,0-0.028,0V59.14c0.057,0,0.085,0,0.113,0h6.001c0.396,0,0.793-0.397,0.793-0.822   s-0.396-0.793-0.793-0.793H79.2c-0.028,0-0.057,0-0.113,0v-3.938c0.057,0,0.085,0,0.113,0h6.001c0.396,0,0.793-0.396,0.793-0.821   c0-0.396-0.396-0.793-0.793-0.793H79.2c-0.028,0-0.057,0-0.113,0v-3.938c0.057,0,0.085,0,0.113,0h6.001   c0.396,0,0.793-0.369,0.793-0.793s-0.396-0.822-0.793-0.822H79.2c-0.028,0-0.057,0-0.085,0c0,0,0,0-0.028,0v-3.91   c0.057,0,0.085,0,0.113,0h6.001c0.396,0,0.793-0.368,0.793-0.793c0-0.425-0.396-0.822-0.793-0.793H79.2   c-0.028-0.028-0.057-0.028-0.113,0v-3.966c0.057,0,0.085,0,0.113,0h6.001c0.396,0,0.793-0.368,0.793-0.793   c0-0.425-0.396-0.793-0.793-0.793H79.2c-0.028,0-0.057,0-0.085,0c0,0,0,0-0.028,0v-3.966c0.057,0.028,0.085,0.028,0.113,0h6.001   c0.396,0.028,0.793-0.369,0.793-0.793s-0.396-0.793-0.793-0.793H79.2c-0.028,0-0.057,0-0.085,0c0,0,0,0-0.028,0v-4.165   c0-2.606-2.095-4.731-4.699-4.731h-4.189c0-0.028,0-0.057,0-0.113V14.83c0.028-0.482-0.481-0.907-0.962-0.793   c-0.368,0.057-0.623,0.425-0.623,0.793v5.978c0,0.057,0,0.085,0,0.113h-3.935c0-0.028,0-0.057,0-0.113V14.83   c0-0.482-0.51-0.907-0.991-0.793c-0.34,0.057-0.623,0.425-0.623,0.793v5.978c0,0.057,0,0.085,0,0.113h-3.906   c0-0.028,0-0.057,0-0.113V14.83c0-0.482-0.51-0.907-0.991-0.793c-0.339,0.057-0.622,0.425-0.622,0.793v5.978   c0,0.057,0,0.085,0,0.113h-3.936c0-0.028,0-0.057,0-0.113V14.83c0-0.482-0.509-0.907-0.99-0.793   c-0.34,0.057-0.623,0.425-0.623,0.793v5.978c0,0.057,0,0.085,0,0.113h-3.934c0-0.028,0-0.057,0-0.113V14.83   c0.028-0.482-0.51-0.907-0.963-0.793c-0.367,0.057-0.65,0.425-0.623,0.793v5.978c0,0.057,0,0.085,0,0.113h-3.934   c0-0.028,0-0.057,0-0.113V14.83c0.027-0.482-0.51-0.907-0.963-0.793c-0.368,0.057-0.651,0.425-0.623,0.793v5.978   c0,0.057,0,0.085,0,0.113h-3.963c0-0.028,0-0.057,0-0.113V14.83c0.028-0.482-0.481-0.907-0.963-0.793   c-0.367,0.057-0.623,0.425-0.623,0.793v5.978c0,0.057,0,0.085,0,0.113h-3.935c0-0.028,0-0.057,0-0.113V14.83   C31.473,14.376,31.048,13.951,30.595,14.008L30.595,14.008z M25.699,22.507h48.689c1.755,0,3.114,1.388,3.114,3.145v48.702   c0,1.756-1.359,3.145-3.114,3.145H25.699c-1.756,0-3.114-1.389-3.114-3.145V25.652C22.584,23.896,23.943,22.507,25.699,22.507   L25.699,22.507z M30.511,29.816c-0.368,0.057-0.651,0.425-0.651,0.793v38.786c0,0.425,0.396,0.793,0.792,0.793h38.753   c0.425,0,0.793-0.368,0.793-0.793V30.61c0-0.425-0.368-0.793-0.793-0.793H30.652c0,0-0.027,0-0.057,0   C30.568,29.816,30.539,29.816,30.511,29.816L30.511,29.816z M31.473,31.403h37.14v37.198h-37.14V31.403L31.473,31.403z"/></g></g><g id="SvgjsG1075" featureKey="J3GnXt-0" transform="matrix(3.226847096046566,0,0,3.226847096046566,97.57889281652498,11.284289304818877)" fill="#000"><path d="M4.54 5.84 l4.5 10.72 l0.08 0 l4.46 -10.72 l2.86 0 l0 14.16 l-1.92 0 l0 -11.64 l-0.04 0 l-4.78 11.64 l-1.28 0 l-4.78 -11.64 l-0.04 0 l0 11.64 l-1.92 0 l0 -14.16 l2.86 0 z M23.28 10.28 c1.2 0 2.15 0.27328 2.85 0.81994 s1.07 1.3067 1.11 2.28 l0 5.08 c0 0.48 0.02666 0.99334 0.08 1.54 l-1.6 0 c-0.04 -0.42666 -0.06 -0.90666 -0.06 -1.44 l-0.04 0 c-0.41334 0.61334 -0.89 1.0467 -1.43 1.3 s-1.17 0.38 -1.89 0.38 c-0.97334 0 -1.7633 -0.26 -2.37 -0.78 s-0.91 -1.2067 -0.91 -2.06 c0 -1.08 0.45334 -1.8967 1.36 -2.45 s2.1866 -0.83 3.84 -0.83 l1.34 0 l0 -0.34 c0 -0.64 -0.21 -1.1433 -0.63 -1.51 s-0.97 -0.55 -1.65 -0.55 c-0.50666 0 -0.95 0.07666 -1.33 0.23 s-0.83 0.43668 -1.35 0.85002 l-1.08 -1.12 c1.0267 -0.90666 2.28 -1.3733 3.76 -1.4 z M20.82 17.259999999999998 c0 1.0267 0.68002 1.54 2.04 1.54 c0.81334 0 1.4633 -0.24334 1.95 -0.73 s0.73666 -1.19 0.75 -2.11 l0 -0.52 l-1.02 0 c-1.1733 0 -2.0866 0.15 -2.74 0.45 s-0.98 0.75666 -0.98 1.37 z M34.82 10.28 c1.0667 0 1.9033 0.32 2.51 0.96 s0.91666 1.5 0.93 2.58 l0 6.18 l-1.8 0 l0 -5.66 c0 -0.73334 -0.19 -1.3133 -0.57 -1.74 s-0.91 -0.64 -1.59 -0.64 c-0.84 0 -1.49 0.28 -1.95 0.84 s-0.69 1.3067 -0.69 2.24 l0 4.96 l-1.8 0 l0 -9.48 l1.8 0 l0 1.46 l0.04 0 c0.25334 -0.53334 0.66334 -0.95 1.23 -1.25 s1.1967 -0.45 1.89 -0.45 z M43.480000000000004 7.859999999999999 l-0.000019531 2.66 l2.58 0 l0 1.56 l-2.58 0 l0 4.56 c0 0.61334 0.08666 1.0867 0.26 1.42 s0.54 0.5 1.1 0.5 c0.53334 0 0.96 -0.09334 1.28 -0.28 l0 1.64 c-0.34666 0.18666 -0.89332 0.29332 -1.64 0.31998 c-0.72 0 -1.2767 -0.11 -1.67 -0.33 s-0.68 -0.52666 -0.86 -0.92 s-0.27 -1.01 -0.27 -1.85 l0 -5.06 l-2.08 0 l0 -1.56 l2.08 0 l0 -2.66 l1.8 0 z M52.720000000000006 10.28 c1.4533 0 2.5834 0.45664 3.39 1.37 s1.2167 2.17 1.23 3.77 l0 0.5 l-7.6 0 c0 0.77334 0.31 1.4233 0.93 1.95 s1.3767 0.79666 2.27 0.81 c0.98666 0 1.8533 -0.47334 2.6 -1.42 l1.36 1.04 c-1.0133 1.2933 -2.4134 1.94 -4.2 1.94 c-1.4533 0 -2.6234 -0.46334 -3.51 -1.39 s-1.3433 -2.1234 -1.37 -3.59 c0 -1.4133 0.45666 -2.59 1.37 -3.53 s2.09 -1.4233 3.53 -1.45 z M55.42 14.48 c-0.02666 -0.89334 -0.28 -1.5767 -0.76 -2.05 s-1.14 -0.71 -1.98 -0.71 c-0.56 0 -1.0633 0.13666 -1.51 0.41 s-0.79666 0.62668 -1.05 1.06 s-0.38 0.86334 -0.38 1.29 l5.68 0 z M64.46000000000001 10.28 c1.0667 0 1.9033 0.32 2.51 0.96 s0.91666 1.5 0.93 2.58 l0 6.18 l-1.8 0 l0 -5.66 c0 -0.73334 -0.19 -1.3133 -0.57 -1.74 s-0.91 -0.64 -1.59 -0.64 c-0.84 0 -1.49 0.28 -1.95 0.84 s-0.69 1.3067 -0.69 2.24 l0 4.96 l-1.8 0 l0 -9.48 l1.8 0 l0 1.46 l0.04 0 c0.25334 -0.53334 0.66334 -0.95 1.23 -1.25 s1.1967 -0.45 1.89 -0.45 z M71.66000000000001 5.800000000000001 c0.36 0 0.67002 0.13002 0.93002 0.39002 s0.39 0.57 0.39 0.93 c0 0.37334 -0.13334 0.68668 -0.4 0.94002 s-0.57332 0.38 -0.91998 0.38 c-0.37334 0 -0.68668 -0.12666 -0.94002 -0.38 s-0.38 -0.56668 -0.38 -0.94002 s0.13334 -0.68668 0.4 -0.94002 s0.57332 -0.38 0.91998 -0.38 z M72.56 10.52 l0 9.48 l-1.8 0 l0 -9.48 l1.8 0 z M76.98 10.52 l2.3 3.36 l2.26 -3.36 l2.18 0 l-3.24 4.42 l3.84 5.06 l-2.32 0 l-2.8 -3.98 l-2.8 3.98 l-2.22 0 l3.84 -5.06 l-3.36 -4.42 l2.32 0 z"/></g>
			</g>
		</svg>
	